<svg width="17" height="17" viewBox="0 0 17 17" fill="none" xmlns="http://www.w3.org/2000/svg">
<circle cx="8.5" cy="8.5" r="8.5" fill="#E0001B"/>
<path d="M11.084 6.40234C11.084 6.94531 10.9258 7.39844 10.6094 7.76172C10.293 8.12109 9.84766 8.36328 9.27344 8.48828V8.53516C9.96094 8.62109 10.4766 8.83594 10.8203 9.17969C11.1641 9.51953 11.3359 9.97266 11.3359 10.5391C11.3359 11.3633 11.0449 12 10.4629 12.4492C9.88086 12.8945 9.05273 13.1172 7.97852 13.1172C7.0293 13.1172 6.22852 12.9629 5.57617 12.6543V11.4297C5.93945 11.6094 6.32422 11.748 6.73047 11.8457C7.13672 11.9434 7.52734 11.9922 7.90234 11.9922C8.56641 11.9922 9.0625 11.8691 9.39062 11.623C9.71875 11.377 9.88281 10.9961 9.88281 10.4805C9.88281 10.0234 9.70117 9.6875 9.33789 9.47266C8.97461 9.25781 8.4043 9.15039 7.62695 9.15039H6.88281V8.03125H7.63867C9.00586 8.03125 9.68945 7.55859 9.68945 6.61328C9.68945 6.24609 9.57031 5.96289 9.33203 5.76367C9.09375 5.56445 8.74219 5.46484 8.27734 5.46484C7.95312 5.46484 7.64062 5.51172 7.33984 5.60547C7.03906 5.69531 6.68359 5.87305 6.27344 6.13867L5.59961 5.17773C6.38477 4.59961 7.29688 4.31055 8.33594 4.31055C9.19922 4.31055 9.87305 4.49609 10.3574 4.86719C10.8418 5.23828 11.084 5.75 11.084 6.40234Z" fill="white"/>
</svg>
